<svg xmlns="http://www.w3.org/2000/svg" xmlns:xlink="http://www.w3.org/1999/xlink" fill="none" version="1.1" width="318" height="104" viewBox="0 0 318 104"><g style="mix-blend-mode:passthrough"><g style="mix-blend-mode:passthrough"><path d="M25.3438,84C34.7656,84,43.3438,79.125,43.3438,62.7031L43.3438,31L39.2344,31L39.2344,62.4844C39.2344,76.0469,32.75,80.125,25.3438,80.125C18.0625,80.125,11.7344,76.0469,11.7344,62.4844L11.7344,31L7.40625,31L7.40625,62.7031C7.40625,79.125,15.9062,84,25.3438,84ZM69,84C70.7188,84,73.1719,83.3594,75.4062,82.5625L74.3906,79.2656C73.0312,79.9062,71.1562,80.4062,69.7188,80.4062C64.5938,80.4062,63.3125,77.2656,63.3125,72.5L63.3125,48.5312L74.3281,48.5312L74.3281,45L63.3125,45L63.3125,33.9219L59.7812,33.9219L59.2656,45L53.1562,45.375L53.1562,48.5312L59.125,48.5312L59.125,72.2031C59.125,79.2656,61.4375,84,69,84ZM97.375,84C106.672,84,114.734,76.7031,114.734,64.0781C114.734,51.3906,106.672,44,97.375,44C88.0938,44,80.0312,51.3906,80.0312,64.0781C80.0312,76.7031,88.0938,84,97.375,84ZM97.375,80.4062C89.8906,80.4062,84.4219,73.7812,84.4219,64.0781C84.4219,54.375,89.8906,47.6875,97.375,47.6875C104.859,47.6875,110.406,54.375,110.406,64.0781C110.406,73.7812,104.859,80.4062,97.375,80.4062ZM134.188,83L139.156,83L153.266,45L149.016,45L140.672,68.2969C139.438,72,138.078,75.8438,136.844,79.2656L136.562,79.2656C135.266,75.8438,133.969,72,132.75,68.2969L124.469,45L119.922,45L134.188,83ZM175.875,84C181.422,84,185.031,82.2031,188.125,80.2656L186.531,77.2656C183.656,79.2188,180.422,80.4844,176.312,80.4844C168.031,80.4844,162.484,74.1094,162.266,65L189.484,65C189.641,64.0781,189.703,63.0625,189.703,61.9844C189.703,50.6562,184.156,44,174.875,44C166.234,44,158.031,51.8125,158.031,64.3594C158.031,76.625,166.016,84,175.875,84ZM162.266,61.7031C163.062,52.8438,168.688,47.6094,174.953,47.6094C181.641,47.6094,185.891,52.3281,185.891,61.7031L162.266,61.7031ZM200.188,83L204.375,83L204.375,57.5156C207.172,50.4688,211.281,47.9688,214.672,47.9688C216.172,47.9688,216.891,48.1094,218.188,48.6094L219.062,44C217.828,44.2188,216.688,44,215.172,44C210.703,44,206.891,47.3125,204.297,52.0938L204.156,52.0938L203.656,45L200.188,45L200.188,83ZM235.625,84C244.125,84,248.797,78.9844,248.797,73.1406C248.797,65.7969,242.328,63.7188,236.422,61.5156C231.953,59.875,227.781,58.2969,227.781,54.0938C227.781,50.6719,230.375,47.5312,236.125,47.5312C239.875,47.5312,242.531,49.0312,245.125,50.9531L247.359,48.1094C244.547,45.8125,240.453,44,236.203,44C228.062,44,223.594,48.75,223.594,54.3125C223.594,60.875,229.656,63.2188,235.344,65.2188C239.797,66.7969,244.625,68.8594,244.625,73.3438C244.625,77.2656,241.672,80.5469,235.844,80.5469C230.578,80.5469,227.062,78.4844,223.75,75.7812L221.516,78.7656C225.047,81.625,230.016,84,235.625,84ZM273.875,84C279.422,84,283.031,82.2031,286.125,80.2656L284.531,77.2656C281.656,79.2188,278.422,80.4844,274.312,80.4844C266.031,80.4844,260.484,74.1094,260.266,65L287.484,65C287.641,64.0781,287.703,63.0625,287.703,61.9844C287.703,50.6562,282.156,44,272.875,44C264.234,44,256.031,51.8125,256.031,64.3594C256.031,76.625,264.016,84,273.875,84ZM260.266,61.7031C261.062,52.8438,266.688,47.6094,272.953,47.6094C279.641,47.6094,283.891,52.3281,283.891,61.7031L260.266,61.7031Z" fill="#424242" fill-opacity="1"/></g><g style="mix-blend-mode:passthrough"><rect x="303" y="69" width="15" height="15" rx="2" fill="#03A9F4" fill-opacity="1"/></g></g></svg>